<?xml version="1.0" encoding="UTF-8"?>
<mxfile host="app.diagrams.net" modified="2025-10-02T00:00:00.000Z" agent="5.0" etag="drawio-diagram" version="22.0.0" type="device">
  <diagram name="TESTEX Architecture" id="testex-arch">
    <mxGraphModel dx="1422" dy="794" grid="1" gridSize="10" guides="1" tooltips="1" connect="1" arrows="1" fold="1" page="1" pageScale="1" pageWidth="1600" pageHeight="1200" math="0" shadow="0">
      <root>
        <mxCell id="0" />
        <mxCell id="1" parent="0" />
        
        <!-- Title -->
        <mxCell id="title" value="TESTEX - Sistema de Terminação de Contratos AWS Lambda" style="text;html=1;strokeColor=none;fillColor=none;align=center;verticalAlign=middle;whiteSpace=wrap;rounded=0;fontSize=24;fontStyle=1;fontColor=#2E7D32;" vertex="1" parent="1">
          <mxGeometry x="400" y="20" width="800" height="40" as="geometry" />
        </mxCell>

        <!-- User Layer -->
        <mxCell id="user-layer" value="Camada de Usuários" style="rounded=1;whiteSpace=wrap;html=1;fontSize=16;fontStyle=1;fillColor=#4CAF50;fontColor=white;strokeColor=#2E7D32;strokeWidth=2;" vertex="1" parent="1">
          <mxGeometry x="50" y="100" width="200" height="40" as="geometry" />
        </mxCell>
        
        <mxCell id="client" value="👤 Cliente" style="rounded=1;whiteSpace=wrap;html=1;fontSize=12;fillColor=#C8E6C9;strokeColor=#4CAF50;" vertex="1" parent="1">
          <mxGeometry x="50" y="160" width="60" height="40" as="geometry" />
        </mxCell>
        
        <mxCell id="admin" value="👨‍💼 Admin" style="rounded=1;whiteSpace=wrap;html=1;fontSize=12;fillColor=#C8E6C9;strokeColor=#4CAF50;" vertex="1" parent="1">
          <mxGeometry x="120" y="160" width="60" height="40" as="geometry" />
        </mxCell>
        
        <mxCell id="external" value="🖥️ Sistema Externo" style="rounded=1;whiteSpace=wrap;html=1;fontSize=12;fillColor=#C8E6C9;strokeColor=#4CAF50;" vertex="1" parent="1">
          <mxGeometry x="190" y="160" width="60" height="40" as="geometry" />
        </mxCell>

        <!-- API Layer -->
        <mxCell id="api-layer" value="Camada de API" style="rounded=1;whiteSpace=wrap;html=1;fontSize=16;fontStyle=1;fillColor=#FF9800;fontColor=white;strokeColor=#E65100;strokeWidth=2;" vertex="1" parent="1">
          <mxGeometry x="350" y="100" width="200" height="40" as="geometry" />
        </mxCell>
        
        <mxCell id="api-gateway" value="🌐 API Gateway" style="rounded=1;whiteSpace=wrap;html=1;fontSize=12;fillColor=#FFE0B2;strokeColor=#FF9800;" vertex="1" parent="1">
          <mxGeometry x="350" y="160" width="90" height="40" as="geometry" />
        </mxCell>
        
        <mxCell id="api-lambda" value="⚡ API Lambda&#xa;Roteamento" style="rounded=1;whiteSpace=wrap;html=1;fontSize=12;fillColor=#FFE0B2;strokeColor=#FF9800;" vertex="1" parent="1">
          <mxGeometry x="460" y="160" width="90" height="40" as="geometry" />
        </mxCell>

        <!-- Lambda Layer -->
        <mxCell id="lambda-layer" value="Funções Lambda Core" style="rounded=1;whiteSpace=wrap;html=1;fontSize=16;fontStyle=1;fillColor=#2196F3;fontColor=white;strokeColor=#1565C0;strokeWidth=2;" vertex="1" parent="1">
          <mxGeometry x="650" y="100" width="400" height="40" as="geometry" />
        </mxCell>
        
        <mxCell id="contract-processor" value="📋 Contract&#xa;Processor" style="rounded=1;whiteSpace=wrap;html=1;fontSize=12;fillColor=#BBDEFB;strokeColor=#2196F3;" vertex="1" parent="1">
          <mxGeometry x="650" y="160" width="90" height="60" as="geometry" />
        </mxCell>
        
        <mxCell id="database-manager" value="🗄️ Database&#xa;Manager" style="rounded=1;whiteSpace=wrap;html=1;fontSize=12;fillColor=#BBDEFB;strokeColor=#2196F3;" vertex="1" parent="1">
          <mxGeometry x="760" y="160" width="90" height="60" as="geometry" />
        </mxCell>
        
        <mxCell id="file-handler" value="📁 File&#xa;Handler" style="rounded=1;whiteSpace=wrap;html=1;fontSize=12;fillColor=#BBDEFB;strokeColor=#2196F3;" vertex="1" parent="1">
          <mxGeometry x="870" y="160" width="90" height="60" as="geometry" />
        </mxCell>
        
        <mxCell id="notification-service" value="📧 Notification&#xa;Service" style="rounded=1;whiteSpace=wrap;html=1;fontSize=12;fillColor=#BBDEFB;strokeColor=#2196F3;" vertex="1" parent="1">
          <mxGeometry x="980" y="160" width="90" height="60" as="geometry" />
        </mxCell>

        <!-- Storage Layer -->
        <mxCell id="storage-layer" value="Camada de Armazenamento" style="rounded=1;whiteSpace=wrap;html=1;fontSize=16;fontStyle=1;fillColor=#9C27B0;fontColor=white;strokeColor=#4A148C;strokeWidth=2;" vertex="1" parent="1">
          <mxGeometry x="200" y="300" width="600" height="40" as="geometry" />
        </mxCell>
        
        <mxCell id="dynamodb" value="📊 DynamoDB&#xa;Contratos&#xa;Clientes&#xa;Logs" style="rounded=1;whiteSpace=wrap;html=1;fontSize=12;fillColor=#E1BEE7;strokeColor=#9C27B0;" vertex="1" parent="1">
          <mxGeometry x="200" y="360" width="100" height="80" as="geometry" />
        </mxCell>
        
        <mxCell id="s3-files" value="📄 S3 Files&#xa;Documentos" style="rounded=1;whiteSpace=wrap;html=1;fontSize=12;fillColor=#E1BEE7;strokeColor=#9C27B0;" vertex="1" parent="1">
          <mxGeometry x="320" y="360" width="100" height="60" as="geometry" />
        </mxCell>
        
        <mxCell id="s3-archives" value="📦 S3 Archives&#xa;Arquivos" style="rounded=1;whiteSpace=wrap;html=1;fontSize=12;fillColor=#E1BEE7;strokeColor=#9C27B0;" vertex="1" parent="1">
          <mxGeometry x="440" y="360" width="100" height="60" as="geometry" />
        </mxCell>
        
        <mxCell id="s3-backups" value="💾 S3 Backups&#xa;Backups" style="rounded=1;whiteSpace=wrap;html=1;fontSize=12;fillColor=#E1BEE7;strokeColor=#9C27B0;" vertex="1" parent="1">
          <mxGeometry x="560" y="360" width="100" height="60" as="geometry" />
        </mxCell>
        
        <mxCell id="cloudwatch" value="📊 CloudWatch&#xa;Logs/Métricas" style="rounded=1;whiteSpace=wrap;html=1;fontSize=12;fillColor=#E1BEE7;strokeColor=#9C27B0;" vertex="1" parent="1">
          <mxGeometry x="680" y="360" width="100" height="60" as="geometry" />
        </mxCell>

        <!-- Services Layer -->
        <mxCell id="services-layer" value="Serviços de Comunicação" style="rounded=1;whiteSpace=wrap;html=1;fontSize=16;fontStyle=1;fillColor=#FF5722;fontColor=white;strokeColor=#BF360C;strokeWidth=2;" vertex="1" parent="1">
          <mxGeometry x="900" y="300" width="200" height="40" as="geometry" />
        </mxCell>
        
        <mxCell id="ses" value="📤 Amazon SES&#xa;Email Service" style="rounded=1;whiteSpace=wrap;html=1;fontSize=12;fillColor=#FFCCBC;strokeColor=#FF5722;" vertex="1" parent="1">
          <mxGeometry x="900" y="360" width="100" height="60" as="geometry" />
        </mxCell>

        <!-- Process Flow -->
        <mxCell id="flow-title" value="Fluxo de Processo" style="text;html=1;strokeColor=none;fillColor=none;align=center;verticalAlign=middle;whiteSpace=wrap;rounded=0;fontSize=18;fontStyle=1;fontColor=#1565C0;" vertex="1" parent="1">
          <mxGeometry x="50" y="500" width="200" height="30" as="geometry" />
        </mxCell>

        <mxCell id="step1" value="1. Requisição" style="rounded=1;whiteSpace=wrap;html=1;fontSize=12;fillColor=#E3F2FD;strokeColor=#1976D2;" vertex="1" parent="1">
          <mxGeometry x="50" y="540" width="100" height="40" as="geometry" />
        </mxCell>
        
        <mxCell id="step2" value="2. Validação" style="rounded=1;whiteSpace=wrap;html=1;fontSize=12;fillColor=#E8F5E8;strokeColor=#4CAF50;" vertex="1" parent="1">
          <mxGeometry x="170" y="540" width="100" height="40" as="geometry" />
        </mxCell>
        
        <mxCell id="step3" value="3. Processamento" style="rounded=1;whiteSpace=wrap;html=1;fontSize=12;fillColor=#FFF3E0;strokeColor=#FF9800;" vertex="1" parent="1">
          <mxGeometry x="290" y="540" width="100" height="40" as="geometry" />
        </mxCell>
        
        <mxCell id="step4" value="4. Backup" style="rounded=1;whiteSpace=wrap;html=1;fontSize=12;fillColor=#F3E5F5;strokeColor=#9C27B0;" vertex="1" parent="1">
          <mxGeometry x="410" y="540" width="100" height="40" as="geometry" />
        </mxCell>
        
        <mxCell id="step5" value="5. Atualização" style="rounded=1;whiteSpace=wrap;html=1;fontSize=12;fillColor=#FCE4EC;strokeColor=#E91E63;" vertex="1" parent="1">
          <mxGeometry x="530" y="540" width="100" height="40" as="geometry" />
        </mxCell>
        
        <mxCell id="step6" value="6. Notificação" style="rounded=1;whiteSpace=wrap;html=1;fontSize=12;fillColor=#FFEBEE;strokeColor=#F44336;" vertex="1" parent="1">
          <mxGeometry x="650" y="540" width="100" height="40" as="geometry" />
        </mxCell>
        
        <mxCell id="step7" value="7. Resposta" style="rounded=1;whiteSpace=wrap;html=1;fontSize=12;fillColor=#E0F2F1;strokeColor=#009688;" vertex="1" parent="1">
          <mxGeometry x="770" y="540" width="100" height="40" as="geometry" />
        </mxCell>

        <!-- Main Flow Arrows -->
        <mxCell id="arrow1" value="" style="endArrow=classic;html=1;rounded=0;strokeColor=#666666;strokeWidth=2;" edge="1" parent="1" source="client" target="api-gateway">
          <mxGeometry width="50" height="50" relative="1" as="geometry">
            <mxPoint x="300" y="300" as="sourcePoint" />
            <mxPoint x="350" y="250" as="targetPoint" />
          </mxGeometry>
        </mxCell>
        
        <mxCell id="arrow2" value="" style="endArrow=classic;html=1;rounded=0;strokeColor=#666666;strokeWidth=2;" edge="1" parent="1" source="admin" target="api-gateway">
          <mxGeometry width="50" height="50" relative="1" as="geometry">
            <mxPoint x="300" y="300" as="sourcePoint" />
            <mxPoint x="350" y="250" as="targetPoint" />
          </mxGeometry>
        </mxCell>
        
        <mxCell id="arrow3" value="" style="endArrow=classic;html=1;rounded=0;strokeColor=#666666;strokeWidth=2;" edge="1" parent="1" source="external" target="api-gateway">
          <mxGeometry width="50" height="50" relative="1" as="geometry">
            <mxPoint x="300" y="300" as="sourcePoint" />
            <mxPoint x="350" y="250" as="targetPoint" />
          </mxGeometry>
        </mxCell>
        
        <mxCell id="arrow4" value="" style="endArrow=classic;html=1;rounded=0;strokeColor=#666666;strokeWidth=2;" edge="1" parent="1" source="api-gateway" target="api-lambda">
          <mxGeometry width="50" height="50" relative="1" as="geometry">
            <mxPoint x="300" y="300" as="sourcePoint" />
            <mxPoint x="350" y="250" as="targetPoint" />
          </mxGeometry>
        </mxCell>
        
        <mxCell id="arrow5" value="" style="endArrow=classic;html=1;rounded=0;strokeColor=#666666;strokeWidth=2;" edge="1" parent="1" source="api-lambda" target="contract-processor">
          <mxGeometry width="50" height="50" relative="1" as="geometry">
            <mxPoint x="300" y="300" as="sourcePoint" />
            <mxPoint x="350" y="250" as="targetPoint" />
          </mxGeometry>
        </mxCell>
        
        <mxCell id="arrow6" value="" style="endArrow=classic;html=1;rounded=0;strokeColor=#666666;strokeWidth=2;" edge="1" parent="1" source="contract-processor" target="database-manager">
          <mxGeometry width="50" height="50" relative="1" as="geometry">
            <mxPoint x="300" y="300" as="sourcePoint" />
            <mxPoint x="350" y="250" as="targetPoint" />
          </mxGeometry>
        </mxCell>
        
        <mxCell id="arrow7" value="" style="endArrow=classic;html=1;rounded=0;strokeColor=#666666;strokeWidth=2;" edge="1" parent="1" source="contract-processor" target="file-handler">
          <mxGeometry width="50" height="50" relative="1" as="geometry">
            <mxPoint x="300" y="300" as="sourcePoint" />
            <mxPoint x="350" y="250" as="targetPoint" />
          </mxGeometry>
        </mxCell>
        
        <mxCell id="arrow8" value="" style="endArrow=classic;html=1;rounded=0;strokeColor=#666666;strokeWidth=2;" edge="1" parent="1" source="contract-processor" target="notification-service">
          <mxGeometry width="50" height="50" relative="1" as="geometry">
            <mxPoint x="300" y="300" as="sourcePoint" />
            <mxPoint x="350" y="250" as="targetPoint" />
          </mxGeometry>
        </mxCell>
        
        <mxCell id="arrow9" value="" style="endArrow=classic;html=1;rounded=0;strokeColor=#666666;strokeWidth=2;" edge="1" parent="1" source="database-manager" target="dynamodb">
          <mxGeometry width="50" height="50" relative="1" as="geometry">
            <mxPoint x="300" y="300" as="sourcePoint" />
            <mxPoint x="350" y="250" as="targetPoint" />
          </mxGeometry>
        </mxCell>
        
        <mxCell id="arrow10" value="" style="endArrow=classic;html=1;rounded=0;strokeColor=#666666;strokeWidth=2;" edge="1" parent="1" source="file-handler" target="s3-files">
          <mxGeometry width="50" height="50" relative="1" as="geometry">
            <mxPoint x="300" y="300" as="sourcePoint" />
            <mxPoint x="350" y="250" as="targetPoint" />
          </mxGeometry>
        </mxCell>
        
        <mxCell id="arrow11" value="" style="endArrow=classic;html=1;rounded=0;strokeColor=#666666;strokeWidth=2;" edge="1" parent="1" source="file-handler" target="s3-archives">
          <mxGeometry width="50" height="50" relative="1" as="geometry">
            <mxPoint x="300" y="300" as="sourcePoint" />
            <mxPoint x="350" y="250" as="targetPoint" />
          </mxGeometry>
        </mxCell>
        
        <mxCell id="arrow12" value="" style="endArrow=classic;html=1;rounded=0;strokeColor=#666666;strokeWidth=2;" edge="1" parent="1" source="file-handler" target="s3-backups">
          <mxGeometry width="50" height="50" relative="1" as="geometry">
            <mxPoint x="300" y="300" as="sourcePoint" />
            <mxPoint x="350" y="250" as="targetPoint" />
          </mxGeometry>
        </mxCell>
        
        <mxCell id="arrow13" value="" style="endArrow=classic;html=1;rounded=0;strokeColor=#666666;strokeWidth=2;" edge="1" parent="1" source="notification-service" target="ses">
          <mxGeometry width="50" height="50" relative="1" as="geometry">
            <mxPoint x="300" y="300" as="sourcePoint" />
            <mxPoint x="350" y="250" as="targetPoint" />
          </mxGeometry>
        </mxCell>

        <!-- Process Flow Arrows -->
        <mxCell id="flow-arrow1" value="" style="endArrow=classic;html=1;rounded=0;strokeColor=#1976D2;strokeWidth=3;" edge="1" parent="1" source="step1" target="step2">
          <mxGeometry width="50" height="50" relative="1" as="geometry">
            <mxPoint x="300" y="600" as="sourcePoint" />
            <mxPoint x="350" y="550" as="targetPoint" />
          </mxGeometry>
        </mxCell>
        
        <mxCell id="flow-arrow2" value="" style="endArrow=classic;html=1;rounded=0;strokeColor=#1976D2;strokeWidth=3;" edge="1" parent="1" source="step2" target="step3">
          <mxGeometry width="50" height="50" relative="1" as="geometry">
            <mxPoint x="300" y="600" as="sourcePoint" />
            <mxPoint x="350" y="550" as="targetPoint" />
          </mxGeometry>
        </mxCell>
        
        <mxCell id="flow-arrow3" value="" style="endArrow=classic;html=1;rounded=0;strokeColor=#1976D2;strokeWidth=3;" edge="1" parent="1" source="step3" target="step4">
          <mxGeometry width="50" height="50" relative="1" as="geometry">
            <mxPoint x="300" y="600" as="sourcePoint" />
            <mxPoint x="350" y="550" as="targetPoint" />
          </mxGeometry>
        </mxCell>
        
        <mxCell id="flow-arrow4" value="" style="endArrow=classic;html=1;rounded=0;strokeColor=#1976D2;strokeWidth=3;" edge="1" parent="1" source="step4" target="step5">
          <mxGeometry width="50" height="50" relative="1" as="geometry">
            <mxPoint x="300" y="600" as="sourcePoint" />
            <mxPoint x="350" y="550" as="targetPoint" />
          </mxGeometry>
        </mxCell>
        
        <mxCell id="flow-arrow5" value="" style="endArrow=classic;html=1;rounded=0;strokeColor=#1976D2;strokeWidth=3;" edge="1" parent="1" source="step5" target="step6">
          <mxGeometry width="50" height="50" relative="1" as="geometry">
            <mxPoint x="300" y="600" as="sourcePoint" />
            <mxPoint x="350" y="550" as="targetPoint" />
          </mxGeometry>
        </mxCell>
        
        <mxCell id="flow-arrow6" value="" style="endArrow=classic;html=1;rounded=0;strokeColor=#1976D2;strokeWidth=3;" edge="1" parent="1" source="step6" target="step7">
          <mxGeometry width="50" height="50" relative="1" as="geometry">
            <mxPoint x="300" y="600" as="sourcePoint" />
            <mxPoint x="350" y="550" as="targetPoint" />
          </mxGeometry>
        </mxCell>

        <!-- Legend -->
        <mxCell id="legend-title" value="Legenda" style="text;html=1;strokeColor=none;fillColor=none;align=center;verticalAlign=middle;whiteSpace=wrap;rounded=0;fontSize=16;fontStyle=1;fontColor=#333333;" vertex="1" parent="1">
          <mxGeometry x="1200" y="100" width="100" height="30" as="geometry" />
        </mxCell>
        
        <mxCell id="legend-users" value="👥 Usuários" style="rounded=1;whiteSpace=wrap;html=1;fontSize=12;fillColor=#4CAF50;fontColor=white;strokeColor=#2E7D32;" vertex="1" parent="1">
          <mxGeometry x="1200" y="140" width="100" height="30" as="geometry" />
        </mxCell>
        
        <mxCell id="legend-api" value="🌐 API" style="rounded=1;whiteSpace=wrap;html=1;fontSize=12;fillColor=#FF9800;fontColor=white;strokeColor=#E65100;" vertex="1" parent="1">
          <mxGeometry x="1200" y="180" width="100" height="30" as="geometry" />
        </mxCell>
        
        <mxCell id="legend-lambda" value="⚡ Lambda" style="rounded=1;whiteSpace=wrap;html=1;fontSize=12;fillColor=#2196F3;fontColor=white;strokeColor=#1565C0;" vertex="1" parent="1">
          <mxGeometry x="1200" y="220" width="100" height="30" as="geometry" />
        </mxCell>
        
        <mxCell id="legend-storage" value="🗄️ Storage" style="rounded=1;whiteSpace=wrap;html=1;fontSize=12;fillColor=#9C27B0;fontColor=white;strokeColor=#4A148C;" vertex="1" parent="1">
          <mxGeometry x="1200" y="260" width="100" height="30" as="geometry" />
        </mxCell>
        
        <mxCell id="legend-services" value="📧 Serviços" style="rounded=1;whiteSpace=wrap;html=1;fontSize=12;fillColor=#FF5722;fontColor=white;strokeColor=#BF360C;" vertex="1" parent="1">
          <mxGeometry x="1200" y="300" width="100" height="30" as="geometry" />
        </mxCell>

        <!-- Benefits Box -->
        <mxCell id="benefits-title" value="✅ Benefícios" style="text;html=1;strokeColor=none;fillColor=none;align=center;verticalAlign=middle;whiteSpace=wrap;rounded=0;fontSize=16;fontStyle=1;fontColor=#2E7D32;" vertex="1" parent="1">
          <mxGeometry x="1200" y="360" width="150" height="30" as="geometry" />
        </mxCell>
        
        <mxCell id="benefits-list" value="• Escalabilidade Automática&#xa;• Alta Confiabilidade&#xa;• Segurança Robusta&#xa;• Custo Otimizado&#xa;• Fácil Manutenção&#xa;• Backup Automático&#xa;• Logs Detalhados&#xa;• Retry Automático" style="text;html=1;strokeColor=#4CAF50;fillColor=#E8F5E8;align=left;verticalAlign=top;whiteSpace=wrap;rounded=1;fontSize=11;fontColor=#2E7D32;" vertex="1" parent="1">
          <mxGeometry x="1200" y="400" width="180" height="140" as="geometry" />
        </mxCell>

      </root>
    </mxGraphModel>
  </diagram>
</mxfile>